<?xml version="1.0" encoding="utf-8"?>
<!-- Generator: Adobe Illustrator 25.3.0, SVG Export Plug-In . SVG Version: 6.00 Build 0)  -->
<svg version="1.1" xmlns="http://www.w3.org/2000/svg" xmlns:xlink="http://www.w3.org/1999/xlink" x="0px" y="0px"
	 viewBox="0 0 200 200" style="enable-background:new 0 0 200 200;" xml:space="preserve">
<style type="text/css">
	.st0{fill:url(#SVGID_1_);}
	.st1{fill:url(#SVGID_2_);stroke:#FFFFFF;stroke-width:10;stroke-miterlimit:10;}
	.st2{fill:none;stroke:#231F20;stroke-miterlimit:10;}
	.st3{fill:#FFFFFF;stroke:#ED1C24;stroke-width:10;stroke-miterlimit:10;}
	.st4{fill:#FFFFFF;stroke:#ED1C24;stroke-width:10;stroke-linecap:round;stroke-linejoin:round;stroke-miterlimit:10;}
	.st5{fill:none;stroke:#0B2F15;stroke-width:10;stroke-linecap:round;stroke-miterlimit:10;}
	.st6{fill:none;stroke:#222222;stroke-width:10;stroke-miterlimit:10;}
	.st7{fill:none;stroke:#000000;stroke-width:10;stroke-linecap:round;stroke-linejoin:round;stroke-miterlimit:10;}
	.st8{fill:#0B2F15;}
	.st9{fill:none;stroke:#231F20;stroke-width:10;stroke-linecap:round;stroke-linejoin:round;stroke-miterlimit:10;}
	.st10{fill:#BE1E2D;}
	.st11{fill:#FFDE17;}
	.st12{fill:#603913;}
	.st13{fill:none;}
	.st14{fill:none;stroke:#231F20;stroke-width:10;stroke-linecap:round;stroke-miterlimit:10;}
	.st15{fill:none;stroke:#000000;stroke-width:10;stroke-linejoin:round;stroke-miterlimit:10;}
	.st16{fill:#FBB040;}
	.st17{fill:none;stroke:#000000;stroke-width:10;stroke-miterlimit:10;}
	.st18{fill:none;stroke:#415C49;stroke-width:10;stroke-miterlimit:10;}
	.st19{fill:#8DC63F;}
	.st20{fill:#F9ED32;}
	.st21{fill:none;stroke:#FFFFFF;stroke-width:10;stroke-miterlimit:10;}
	.st22{fill:#00A651;}
	.st23{fill:#D1702F;}
	.st24{fill:#FC9F60;}
	.st25{fill:#FCCDAC;}
	.st26{fill:none;stroke:#000000;stroke-miterlimit:10;}
	.st27{fill:none;stroke:#000000;stroke-width:10;stroke-linecap:round;stroke-miterlimit:10;}
	.st28{fill:#B5D6F4;}
	.st29{fill:#FFFFFF;stroke:#231F20;stroke-width:10;stroke-miterlimit:10;}
	.st30{fill:#FFFFFF;stroke:#231F20;stroke-width:10;stroke-linejoin:round;stroke-miterlimit:10;}
	.st31{fill:none;stroke:#231F20;stroke-width:10;stroke-miterlimit:10;}
	.st32{fill:#FFFFFF;stroke:#222222;stroke-width:10;stroke-miterlimit:10;}
	.st33{fill:#F90303;stroke:#231F20;stroke-width:10;stroke-linecap:round;stroke-linejoin:round;stroke-miterlimit:10;}
	.st34{fill:#FF4F00;stroke:#231F20;stroke-width:10;stroke-linecap:round;stroke-linejoin:round;stroke-miterlimit:10;}
	.st35{fill:#3AC17E;stroke:#000000;stroke-width:10;stroke-miterlimit:10;}
	.st36{fill:#5B2727;stroke:#000000;stroke-width:10;stroke-miterlimit:10;}
	.st37{fill:#73CAFF;stroke:#231F20;stroke-width:10;stroke-miterlimit:10;}
	.st38{fill:#004501;stroke:#231F20;stroke-width:10;stroke-linejoin:round;stroke-miterlimit:10;}
	.st39{fill:#FFFC45;stroke:#231F20;stroke-width:10;stroke-miterlimit:10;}
	.st40{fill:#FFE573;stroke:#231F20;stroke-width:10;stroke-miterlimit:10;}
	.st41{fill:#D01700;stroke:#231F20;stroke-width:10;stroke-miterlimit:10;}
	.st42{fill:#8BC2FF;stroke:#231F20;stroke-width:10;stroke-miterlimit:10;}
	.st43{fill:#3D724B;stroke:#231F20;stroke-width:10;stroke-linejoin:round;stroke-miterlimit:10;}
</style>
<g id="Layer_1">
</g>
<g id="Layer_2">
	<path class="st37" d="M127.37,76.5c0,31.04-25.16,56.2-56.2,56.2s-56.2-25.16-56.2-56.2c0-1.65,0.04-3.29,0.04-3.29
		s0.05-1.1,0.14-2.17c0.27-3.15,1.72-9.23,2.04-10.24c6.38-20.17,27.21-40.59,53.98-40.51C100.25,20.38,127.37,44.62,127.37,76.5z"
		/>
	<path class="st31" d="M14.97,67.01c8.61-12.06,13.54-14.06,16.53-13.22c4.39,1.22,0.91-10.15,9.47,6.61
		c6.09,11.92,4.46,25.46,8.52,23.26c3.26-1.77,11.5-10.77,14.63-11.35c3.52-0.65,4.73,21.2,11.02,21.16
		c5.25-0.03,3.26-14.66,15.88-29.76c4.95-5.92,9.98-9.85,13.22-12.12"/>
	<polygon class="st38" points="94.96,101.18 78.43,107.14 86.7,118.81 104.23,109.99 	"/>
	<path class="st39" d="M161.62,142.17l-11.79-1.3c-0.51-0.06-1.68,1.25-1.56,1.75l2.6,10.89c0.01,0.04,0.02,0.06,0.05,0.08
		l29.14,26.07c0.17,0.15,0.66-0.13,1.1-0.63l8.85-9.89c0.44-0.49,0.67-1.02,0.5-1.17l-28.8-25.77
		C161.69,142.19,161.66,142.17,161.62,142.17z"/>
	<circle class="st32" cx="127.37" cy="118.81" r="33.75"/>
	<path class="st29" d="M116.3,101.75c6.37-4.78,14.81-5.17,20.94-1.1c7.23,4.8,7.68,13.43,7.71,14.33"/>
</g>
</svg>
