<?xml version="1.0" encoding="utf-8"?>
<!-- Generator: Adobe Illustrator 25.3.0, SVG Export Plug-In . SVG Version: 6.00 Build 0)  -->
<svg version="1.1" xmlns="http://www.w3.org/2000/svg" xmlns:xlink="http://www.w3.org/1999/xlink" x="0px" y="0px"
	 viewBox="0 0 200 200" style="enable-background:new 0 0 200 200;" xml:space="preserve">
<style type="text/css">
	.st0{fill:url(#SVGID_1_);}
	.st1{fill:url(#SVGID_2_);stroke:#FFFFFF;stroke-width:10;stroke-miterlimit:10;}
	.st2{fill:none;stroke:#231F20;stroke-miterlimit:10;}
	.st3{fill:#FFFFFF;stroke:#ED1C24;stroke-width:10;stroke-miterlimit:10;}
	.st4{fill:#FFFFFF;stroke:#ED1C24;stroke-width:10;stroke-linecap:round;stroke-linejoin:round;stroke-miterlimit:10;}
	.st5{fill:none;stroke:#0B2F15;stroke-width:10;stroke-linecap:round;stroke-miterlimit:10;}
	.st6{fill:none;stroke:#222222;stroke-width:10;stroke-miterlimit:10;}
	.st7{fill:none;stroke:#000000;stroke-width:10;stroke-linecap:round;stroke-linejoin:round;stroke-miterlimit:10;}
	.st8{fill:#0B2F15;}
	.st9{fill:none;stroke:#231F20;stroke-width:10;stroke-linecap:round;stroke-linejoin:round;stroke-miterlimit:10;}
	.st10{fill:#BE1E2D;}
	.st11{fill:#FFDE17;}
	.st12{fill:#603913;}
	.st13{fill:none;}
	.st14{fill:none;stroke:#231F20;stroke-width:10;stroke-linecap:round;stroke-miterlimit:10;}
	.st15{fill:none;stroke:#000000;stroke-width:10;stroke-linejoin:round;stroke-miterlimit:10;}
	.st16{fill:#FBB040;}
	.st17{fill:none;stroke:#000000;stroke-width:10;stroke-miterlimit:10;}
	.st18{fill:none;stroke:#415C49;stroke-width:10;stroke-miterlimit:10;}
	.st19{fill:#8DC63F;}
	.st20{fill:#F9ED32;}
	.st21{fill:none;stroke:#FFFFFF;stroke-width:10;stroke-miterlimit:10;}
	.st22{fill:#00A651;}
	.st23{fill:#D1702F;}
	.st24{fill:#FC9F60;}
	.st25{fill:#FCCDAC;}
	.st26{fill:none;stroke:#000000;stroke-miterlimit:10;}
	.st27{fill:none;stroke:#000000;stroke-width:10;stroke-linecap:round;stroke-miterlimit:10;}
	.st28{fill:#FFE573;}
	.st29{fill:#B5D6F4;}
	.st30{fill:#FFFFFF;stroke:#231F20;stroke-width:10;stroke-miterlimit:10;}
	.st31{fill:#FFFFFF;stroke:#231F20;stroke-width:10;stroke-linejoin:round;stroke-miterlimit:10;}
	.st32{fill:none;stroke:#231F20;stroke-width:10;stroke-miterlimit:10;}
	.st33{fill:#FFFFFF;stroke:#222222;stroke-width:10;stroke-miterlimit:10;}
	.st34{fill:#F90303;stroke:#231F20;stroke-width:10;stroke-linecap:round;stroke-linejoin:round;stroke-miterlimit:10;}
	.st35{fill:#FF4F00;stroke:#231F20;stroke-width:10;stroke-linecap:round;stroke-linejoin:round;stroke-miterlimit:10;}
	.st36{fill:#3AC17E;stroke:#000000;stroke-width:10;stroke-miterlimit:10;}
	.st37{fill:#5B2727;stroke:#000000;stroke-width:10;stroke-miterlimit:10;}
	.st38{fill:#73CAFF;stroke:#231F20;stroke-width:10;stroke-miterlimit:10;}
	.st39{fill:#004501;stroke:#231F20;stroke-width:10;stroke-linejoin:round;stroke-miterlimit:10;}
	.st40{fill:#FFFC45;stroke:#231F20;stroke-width:10;stroke-miterlimit:10;}
	.st41{fill:#FFE573;stroke:#231F20;stroke-width:10;stroke-miterlimit:10;}
	.st42{fill:#D01700;stroke:#231F20;stroke-width:10;stroke-miterlimit:10;}
	.st43{fill:#8BC2FF;stroke:#231F20;stroke-width:10;stroke-miterlimit:10;}
	.st44{fill:#3D724B;stroke:#231F20;stroke-width:10;stroke-linejoin:round;stroke-miterlimit:10;}
</style>
<g id="Layer_1">
	<path class="st10" d="M135.43,83.89H43.9c-0.32,0-0.63-0.02-0.94-0.05c-4.66-0.47-8.33-4.44-8.33-9.22c0-5.09,4.17-9.27,9.27-9.27
		h81.9c1.13,7.18,4.57,13.6,9.55,18.46C135.37,83.84,135.4,83.87,135.43,83.89z"/>
	<path class="st11" d="M34.39,106.51L34.39,106.51c0,2.55,2.09,4.63,4.63,4.63l117.18,0c2.55,0,4.63-2.09,4.63-4.63v0
		c0-2.55-2.09-4.63-4.63-4.63l-117.18,0C36.47,101.87,34.39,103.96,34.39,106.51z"/>
	<path class="st12" d="M34.39,119.77L34.39,119.77c0,5.1,4.17,9.27,9.27,9.27l107.91,0c5.1,0,9.27-4.17,9.27-9.27v0
		c0-5.1-4.17-9.27-9.27-9.27l-107.91,0C38.56,110.5,34.39,114.67,34.39,119.77z"/>
	<path class="st16" d="M125.41,58.98c-0.01,0.39-0.02,0.78-0.02,1.18c0,1.69,0.13,3.34,0.37,4.96c-8.47-0.18-17.93-0.42-27.92-0.42
		c-36.15,0-65.45,3.11-65.45-4.75c0-7.87,29.3-14.24,65.45-14.24c10.87,0,21.12,0.58,30.14,1.6c-0.89,2.11-1.57,4.32-2,6.63"/>
	<path class="st16" d="M34.57,143.26c0-8.26,28.32-4.89,63.26-4.89s63.26-3.37,63.26,4.89s-28.32,14.96-63.26,14.96
		S34.57,151.52,34.57,143.26z"/>
	<path class="st19" d="M160.83,93.14c-0.03,4.06-2.7,7.52-6.36,8.73c-0.91,0.31-1.89,0.47-2.9,0.47H43.66
		c-1.01,0-1.99-0.16-2.9-0.47c-3.69-1.22-6.37-4.71-6.37-8.8c0-4.85,3.79-8.87,8.57-9.23c0.23-0.02,0.46-0.03,0.7-0.03h91.69
		c0.02,0.03,0.05,0.06,0.08,0.08c5.95,5.78,14.08,9.34,23.03,9.34C159.26,93.23,160.05,93.2,160.83,93.14z"/>
	<path class="st11" d="M34.39,133.76L34.39,133.76c0,2.55,2.09,4.63,4.63,4.63l117.18,0c2.55,0,4.63-2.09,4.63-4.63v0
		c0-2.55-2.09-4.63-4.63-4.63l-117.18,0C36.47,129.13,34.39,131.21,34.39,133.76z"/>
	<circle class="st23" cx="75.16" cy="54.68" r="2.74"/>
	<path class="st24" d="M125.41,58.98c-0.24,0.06-0.49,0.1-0.75,0.1c-1.52,0-2.74-1.23-2.74-2.74c0-0.68,0.24-1.29,0.65-1.77
		c0.34-0.4,0.79-0.7,1.3-0.86c0.25-0.07,0.52-0.11,0.79-0.11c0.48,0,0.93,0.12,1.32,0.34"/>
	<circle class="st25" cx="83.99" cy="49.6" r="2.74"/>
	<circle class="st24" cx="101.28" cy="50.86" r="2.74"/>
	<circle class="st23" cx="113.11" cy="57.42" r="2.74"/>
	<circle class="st25" cx="94.14" cy="59.08" r="2.74"/>
	<circle class="st25" cx="121.78" cy="51.94" r="2.74"/>
	<circle class="st28" cx="62.45" cy="54.37" r="2.24"/>
</g>
<g id="Layer_2">
</g>
</svg>
