<?xml version="1.0" encoding="utf-8"?>
<!-- Generator: Adobe Illustrator 25.3.0, SVG Export Plug-In . SVG Version: 6.00 Build 0)  -->
<svg version="1.1" xmlns="http://www.w3.org/2000/svg" xmlns:xlink="http://www.w3.org/1999/xlink" x="0px" y="0px"
	 viewBox="0 0 200 200" style="enable-background:new 0 0 200 200;" xml:space="preserve">
<style type="text/css">
	.st0{fill:url(#SVGID_1_);}
	.st1{fill:url(#SVGID_2_);stroke:#FFFFFF;stroke-width:10;stroke-miterlimit:10;}
	.st2{fill:none;stroke:#231F20;stroke-miterlimit:10;}
	.st3{fill:#FFFFFF;stroke:#ED1C24;stroke-width:10;stroke-miterlimit:10;}
	.st4{fill:#FFFFFF;stroke:#ED1C24;stroke-width:10;stroke-linecap:round;stroke-linejoin:round;stroke-miterlimit:10;}
	.st5{fill:none;stroke:#0B2F15;stroke-width:10;stroke-linecap:round;stroke-miterlimit:10;}
	.st6{fill:none;stroke:#222222;stroke-width:10;stroke-miterlimit:10;}
	.st7{fill:none;stroke:#000000;stroke-width:10;stroke-linecap:round;stroke-linejoin:round;stroke-miterlimit:10;}
	.st8{fill:#0B2F15;}
	.st9{fill:none;stroke:#231F20;stroke-width:10;stroke-linecap:round;stroke-linejoin:round;stroke-miterlimit:10;}
	.st10{fill:#BE1E2D;}
	.st11{fill:#FFDE17;}
	.st12{fill:#603913;}
	.st13{fill:none;}
	.st14{fill:none;stroke:#231F20;stroke-width:10;stroke-linecap:round;stroke-miterlimit:10;}
	.st15{fill:none;stroke:#000000;stroke-width:10;stroke-linejoin:round;stroke-miterlimit:10;}
	.st16{fill:#FBB040;}
	.st17{fill:none;stroke:#000000;stroke-width:10;stroke-miterlimit:10;}
	.st18{fill:none;stroke:#415C49;stroke-width:10;stroke-miterlimit:10;}
	.st19{fill:#8DC63F;}
	.st20{fill:#F9ED32;}
	.st21{fill:none;stroke:#FFFFFF;stroke-width:10;stroke-miterlimit:10;}
	.st22{fill:#00A651;}
	.st23{fill:#D1702F;}
	.st24{fill:#FC9F60;}
	.st25{fill:#FCCDAC;}
	.st26{fill:none;stroke:#000000;stroke-miterlimit:10;}
	.st27{fill:none;stroke:#000000;stroke-width:10;stroke-linecap:round;stroke-miterlimit:10;}
	.st28{fill:#B5D6F4;}
	.st29{fill:#FFFFFF;stroke:#231F20;stroke-width:10;stroke-miterlimit:10;}
	.st30{fill:#FFFFFF;stroke:#231F20;stroke-width:10;stroke-linejoin:round;stroke-miterlimit:10;}
	.st31{fill:none;stroke:#231F20;stroke-width:10;stroke-miterlimit:10;}
	.st32{fill:#FFFFFF;stroke:#222222;stroke-width:10;stroke-miterlimit:10;}
	.st33{fill:#F90303;stroke:#231F20;stroke-width:10;stroke-linecap:round;stroke-linejoin:round;stroke-miterlimit:10;}
	.st34{fill:#FF4F00;stroke:#231F20;stroke-width:10;stroke-linecap:round;stroke-linejoin:round;stroke-miterlimit:10;}
	.st35{fill:#3AC17E;stroke:#000000;stroke-width:10;stroke-miterlimit:10;}
	.st36{fill:#5B2727;stroke:#000000;stroke-width:10;stroke-miterlimit:10;}
	.st37{fill:#73CAFF;stroke:#231F20;stroke-width:10;stroke-miterlimit:10;}
	.st38{fill:#004501;stroke:#231F20;stroke-width:10;stroke-linejoin:round;stroke-miterlimit:10;}
	.st39{fill:#FFFC45;stroke:#231F20;stroke-width:10;stroke-miterlimit:10;}
	.st40{fill:#FFE573;stroke:#231F20;stroke-width:10;stroke-miterlimit:10;}
	.st41{fill:#D01700;stroke:#231F20;stroke-width:10;stroke-miterlimit:10;}
	.st42{fill:#8BC2FF;stroke:#231F20;stroke-width:10;stroke-miterlimit:10;}
	.st43{fill:#3D724B;stroke:#231F20;stroke-width:10;stroke-linejoin:round;stroke-miterlimit:10;}
</style>
<g id="Layer_1">
</g>
<g id="Layer_2">
	<path class="st28" d="M192.39,99.89c0,48.88-39.63,88.51-88.51,88.51s-88.51-39.63-88.51-88.51c0-2.59,0.06-5.17,0.06-5.17
		c0,0,0.08-1.73,0.22-3.41c0.43-4.96,2.71-14.53,3.21-16.12c10.04-31.76,42.86-63.92,85.02-63.8
		C149.67,11.51,192.39,49.68,192.39,99.89z"/>
	<path class="st35" d="M148.07,159.51c4.66-7.72-8.13-18.06-9.46-19.11c-1.66-1.31-4.2-3.04-7.77-4.56
		c-6.99-2.98-19.63-5.87-24.41-2.25c-7.03,5.33-0.17,27.25,17.23,31.56C132.21,167.27,144.49,165.43,148.07,159.51z"/>
	<path class="st35" d="M128.26,153.47c-6.5-6.5-12.99-12.99-19.49-19.49L128.26,153.47z"/>
	<path class="st35" d="M66.11,166.73c9.67,4.53,23.66-5.18,25.08-6.19c1.77-1.26,4.15-3.22,6.3-6.04
		c4.21-5.53,8.64-15.76,4.25-20.02c-6.46-6.29-35.01-2.49-41.52,11.55C57.03,152.93,58.71,163.27,66.11,166.73z"/>
	<path class="st35" d="M76.99,152.28c8.27-5.8,16.55-11.61,24.82-17.41L76.99,152.28z"/>
	<line class="st5" x1="103.7" y1="32.35" x2="103.7" y2="128.59"/>
	<path class="st5" d="M146.73,66.3l-40.34-40.34c-1.56-1.56-4.09-1.56-5.66,0L60.39,66.3"/>
</g>
</svg>
