<?xml version="1.0" encoding="utf-8"?>
<!-- Generator: Adobe Illustrator 25.3.0, SVG Export Plug-In . SVG Version: 6.00 Build 0)  -->
<svg version="1.1" xmlns="http://www.w3.org/2000/svg" xmlns:xlink="http://www.w3.org/1999/xlink" x="0px" y="0px"
	 viewBox="0 0 200 200" style="enable-background:new 0 0 200 200;" xml:space="preserve">
<style type="text/css">
	.st0{fill:url(#SVGID_1_);}
	.st1{fill:url(#SVGID_2_);stroke:#FFFFFF;stroke-width:10;stroke-miterlimit:10;}
	.st2{fill:none;stroke:#231F20;stroke-miterlimit:10;}
	.st3{fill:#FFFFFF;stroke:#ED1C24;stroke-width:10;stroke-miterlimit:10;}
	.st4{fill:#FFFFFF;stroke:#ED1C24;stroke-width:10;stroke-linecap:round;stroke-linejoin:round;stroke-miterlimit:10;}
	.st5{fill:none;stroke:#0B2F15;stroke-width:10;stroke-linecap:round;stroke-miterlimit:10;}
	.st6{fill:none;stroke:#222222;stroke-width:10;stroke-miterlimit:10;}
	.st7{fill:none;stroke:#000000;stroke-width:10;stroke-linecap:round;stroke-linejoin:round;stroke-miterlimit:10;}
	.st8{fill:#0B2F15;}
	.st9{fill:none;stroke:#231F20;stroke-width:10;stroke-linecap:round;stroke-linejoin:round;stroke-miterlimit:10;}
	.st10{fill:#BE1E2D;}
	.st11{fill:#FFDE17;}
	.st12{fill:#603913;}
	.st13{fill:none;}
	.st14{fill:none;stroke:#231F20;stroke-width:10;stroke-linecap:round;stroke-miterlimit:10;}
	.st15{fill:none;stroke:#000000;stroke-width:10;stroke-linejoin:round;stroke-miterlimit:10;}
	.st16{fill:#FBB040;}
	.st17{fill:none;stroke:#000000;stroke-width:10;stroke-miterlimit:10;}
	.st18{fill:none;stroke:#415C49;stroke-width:10;stroke-miterlimit:10;}
	.st19{fill:#8DC63F;}
	.st20{fill:#F9ED32;}
	.st21{fill:none;stroke:#FFFFFF;stroke-width:10;stroke-miterlimit:10;}
	.st22{fill:#00A651;}
	.st23{fill:#D1702F;}
	.st24{fill:#FC9F60;}
	.st25{fill:#FCCDAC;}
	.st26{fill:none;stroke:#000000;stroke-miterlimit:10;}
	.st27{fill:none;stroke:#000000;stroke-width:10;stroke-linecap:round;stroke-miterlimit:10;}
	.st28{fill:#B5D6F4;}
	.st29{fill:#FFFFFF;stroke:#231F20;stroke-width:10;stroke-miterlimit:10;}
	.st30{fill:#FFFFFF;stroke:#231F20;stroke-width:10;stroke-linejoin:round;stroke-miterlimit:10;}
	.st31{fill:none;stroke:#231F20;stroke-width:10;stroke-miterlimit:10;}
	.st32{fill:#FFFFFF;stroke:#222222;stroke-width:10;stroke-miterlimit:10;}
	.st33{fill:#F90303;stroke:#231F20;stroke-width:10;stroke-linecap:round;stroke-linejoin:round;stroke-miterlimit:10;}
	.st34{fill:#FF4F00;stroke:#231F20;stroke-width:10;stroke-linecap:round;stroke-linejoin:round;stroke-miterlimit:10;}
	.st35{fill:#3AC17E;stroke:#000000;stroke-width:10;stroke-miterlimit:10;}
	.st36{fill:#5B2727;stroke:#000000;stroke-width:10;stroke-miterlimit:10;}
	.st37{fill:#73CAFF;stroke:#231F20;stroke-width:10;stroke-miterlimit:10;}
	.st38{fill:#004501;stroke:#231F20;stroke-width:10;stroke-linejoin:round;stroke-miterlimit:10;}
	.st39{fill:#FFFC45;stroke:#231F20;stroke-width:10;stroke-miterlimit:10;}
	.st40{fill:#FFE573;stroke:#231F20;stroke-width:10;stroke-miterlimit:10;}
	.st41{fill:#D01700;stroke:#231F20;stroke-width:10;stroke-miterlimit:10;}
	.st42{fill:#8BC2FF;stroke:#231F20;stroke-width:10;stroke-miterlimit:10;}
	.st43{fill:#3D724B;stroke:#231F20;stroke-width:10;stroke-linejoin:round;stroke-miterlimit:10;}
</style>
<g id="Layer_1">
	<g>
		<g>
			<path class="st22" d="M24.24,88.74c3.84-0.45,7.69-0.9,11.53-1.35c1.45-0.17,2.91-0.38,4.36-0.51c0.12-0.01,0.45,0.03,0.61-0.03
				c0.45-0.18,0.08,0.09,0.2,0.09c-0.55-0.03,0.33-0.65-0.1-0.05c-0.02,0.02-0.01-0.11-0.01-0.11c-0.06,0.21-0.09,0.42-0.15,0.63
				c-0.09,0.32-0.22,0.62-0.36,0.93c-1.09,2.4-2.31,4.76-3.46,7.13c-2.6,5.35-5.2,10.69-7.79,16.04c-0.55,1.13-0.4,2.82,0.9,3.42
				c7.15,3.33,15.06,4.26,22.79,2.62c3.15-0.67,1.81-5.49-1.33-4.82c-6.32,1.35-13.07,0.62-18.93-2.11c0.3,1.14,0.6,2.28,0.9,3.42
				c2.53-5.2,5.05-10.39,7.58-15.59c1.25-2.57,2.55-5.13,3.75-7.72c0.96-2.06,1.68-4.48,0.37-6.57c-1.66-2.65-4.55-2.32-7.17-2.01
				c-2.63,0.31-5.26,0.62-7.89,0.93c-1.92,0.23-3.85,0.45-5.77,0.68c-1.34,0.16-2.5,1.04-2.5,2.5
				C21.74,87.47,22.89,88.9,24.24,88.74L24.24,88.74z"/>
		</g>
	</g>
	<g>
		<g>
			<path class="st22" d="M68.91,102.94c6.28,2.25,15.74,3.25,20.19-2.92c4.59-6.38-2.28-14.27-8.55-15.75
				c-7.39-1.75-15.81,3.27-16.96,10.98c-1.08,7.3,2.99,15.92,9.67,19.29c3.59,1.81,7.74,2.06,11.66,1.47
				c3.44-0.52,7.23-1.89,9.49-4.67c0.85-1.05,1.02-2.51,0-3.54c-0.88-0.88-2.68-1.05-3.54,0c-2.69,3.31-8.64,4.14-12.86,3.16
				c-5.14-1.19-8.82-6.47-9.49-11.72c-0.31-2.47-0.01-4.77,1.57-6.79c1.54-1.97,3.97-3.3,6.46-3.52c2.54-0.22,4.99,0.65,6.83,2.42
				c0.75,0.72,1.5,1.75,1.8,2.53c0.2,0.51,0.31,0.99,0.33,1.24c0.05,0.72,0.06,0.71-0.14,1.34c-0.23,0.74-1.1,1.61-1.99,2.11
				c-1.02,0.57-2.34,0.9-3.58,1c-3.26,0.27-6.49-0.36-9.56-1.46c-1.27-0.46-2.74,0.51-3.08,1.75
				C66.78,101.25,67.63,102.49,68.91,102.94L68.91,102.94z"/>
		</g>
	</g>
	<g>
		<g>
			<path class="st22" d="M104.06,86.23c1.42,10.36,2.85,20.72,4.27,31.09c0.15,1.07,1.42,1.84,2.41,1.84c1.12,0,2.08-0.78,2.41-1.84
				c0.97-3.11,3.53-5.69,6.6-6.78c1.6-0.57,3.29-0.82,4.98-0.58c1.81,0.25,3.6,0.73,5.44,0.51c2.33-0.28,4.22-1.63,4.99-3.89
				c0.68-1.98,0.47-4.38-0.15-6.36c-1.27-4.06-4.43-7.42-8.52-8.69c-4.56-1.42-9.73-0.01-13.08,3.34c-0.87,0.87-0.96,2.32-0.2,3.28
				c0.83,1.05,2.05,1.16,3.23,0.64c3.51-1.54,4.85-5.74,4.3-9.28c-0.59-3.8-3.52-7.41-6.33-9.88c-1.49-1.31-3.35-2.45-5.41-2.3
				c-2.3,0.17-4.09,2.1-4.18,4.39c-0.08,2.01,0.97,3.79,2,5.42c1.02,1.61,1.93,3.31,2.61,5.1c1.67,4.34,2.37,8.89,2.07,13.52
				c-0.09,1.48,1.7,3.02,3.16,2.41c5.43-2.27,10.86-4.54,16.29-6.81c1.24-0.52,2.14-1.66,1.75-3.08c-0.36-1.3-1.77-2.11-3.08-1.75
				c-3.42,0.96-7.78,1.07-10.57-1.52c-2.23-2.07-2.88-5.44-1.06-7.87c0.65-0.87,0.33-2.31-0.39-3.03c-0.82-0.82-2.03-0.9-3.03-0.39
				c-5.49,2.77-3.96,10.02-0.57,13.8c4.69,5.23,12.61,3.51,18.66,5.59c1.28,0.44,2.73-0.5,3.08-1.75c0.38-1.37-0.46-2.63-1.75-3.08
				c-2.77-0.96-5.7-1.18-8.6-1.5c-2.27-0.25-5.14-0.55-6.93-1.92c-1.32-1-2.13-2.47-2.49-4.11c-0.13-0.6-0.12-1.11,0.09-1.75
				c-0.02,0.07,0.22-0.41,0.19-0.37c0.06-0.09,0.4-0.4,0.15-0.2c0.21-0.17,0.47-0.29,0.7-0.41c-1.14-1.14-2.28-2.28-3.42-3.42
				c-3.09,4.12-1.84,10.2,1.6,13.7c4.03,4.09,10.42,4.51,15.67,3.03c-0.44-1.61-0.89-3.21-1.33-4.82
				c-5.43,2.27-10.86,4.54-16.29,6.81c1.05,0.8,2.11,1.61,3.16,2.41c0.26-4.18-0.22-8.43-1.42-12.44c-0.63-2.1-1.47-4.16-2.47-6.12
				c-0.79-1.56-2.05-3-2.65-4.64c-0.03-0.07-0.25-0.68-0.15-0.67c0.18,0.03-0.49,0.63-0.5,0.4c0-0.08,1.23,0.58,1.42,0.73
				c1.47,1.15,2.88,2.87,3.88,4.45c1.4,2.21,2.17,5.74-0.69,6.99c1.01,1.31,2.02,2.62,3.03,3.93c2.14-2.14,5.32-2.95,8.21-2.05
				c2.83,0.88,5.01,3.69,5.36,6.62c0.11,0.94,0.16,2.34-0.69,2.53c-1.32,0.29-3.06-0.26-4.43-0.45c-3.45-0.48-6.95,0.27-9.96,2.03
				c-3.39,1.99-5.96,5.15-7.13,8.91c1.61,0,3.21,0,4.82,0c-1.42-10.36-2.85-20.72-4.27-31.09c-0.18-1.34-1.9-2.07-3.08-1.75
				C104.36,83.55,103.88,84.88,104.06,86.23L104.06,86.23z"/>
		</g>
	</g>
	<g>
		<g>
			<path class="st22" d="M127.91,105.71c1.53,0.19,3.07,0.39,4.6,0.58c1.07,0.14,2.15-0.87,2.41-1.84c0.32-1.16-0.26-2.14-1.15-2.82
				c-7.2-5.5-18.19-3.05-23.08,4.3c1.55,0.42,3.11,0.84,4.66,1.26c-0.41-7.66-0.81-15.33-1.22-22.99c-0.07-1.35-1.1-2.5-2.5-2.5
				c-1.3,0-2.57,1.14-2.5,2.5c0.41,7.66,0.81,15.33,1.22,22.99c0.13,2.51,3.27,3.35,4.66,1.26c3.52-5.31,11.25-6.32,16.24-2.51
				c0.42-1.55,0.84-3.11,1.26-4.66c-1.53-0.19-3.07-0.39-4.6-0.58c-1.34-0.17-2.5,1.27-2.5,2.5
				C125.41,104.7,126.57,105.54,127.91,105.71L127.91,105.71z"/>
		</g>
	</g>
	<g>
		<g>
			<path class="st22" d="M156.51,86.91c-10.91-0.23-18.12,15.01-9.9,22.79c3.71,3.51,9.59,4.57,14.36,2.81
				c5.14-1.89,8.56-6.7,8.1-12.26c-0.47-5.8-4.5-11.66-10.53-12.65c-1.33-0.22-2.69,0.35-3.08,1.75c-0.33,1.2,0.41,2.85,1.75,3.08
				c0.46,0.08,0.91,0.18,1.36,0.32c0.16,0.05,0.73,0.28,0.29,0.09c0.26,0.11,0.51,0.24,0.76,0.38c0.18,0.1,0.37,0.21,0.54,0.33
				c0.07,0.05,0.63,0.45,0.43,0.3c-0.18-0.14,0.29,0.26,0.4,0.35c0.21,0.19,0.41,0.39,0.61,0.6c0.15,0.16,0.28,0.32,0.42,0.48
				c0.28,0.31-0.14-0.23,0.2,0.26c0.28,0.42,0.55,0.84,0.79,1.28c0.12,0.22,0.23,0.45,0.34,0.68c0.21,0.43-0.07-0.25,0.08,0.2
				c0.17,0.51,0.35,1.02,0.47,1.55c0.06,0.24,0.1,0.49,0.15,0.74c0.09,0.48,0-0.31,0.02,0.19c0.02,0.5,0.06,0.99,0.04,1.49
				c0,0.09-0.06,0.81-0.03,0.51c0.03-0.27-0.07,0.37-0.1,0.5c-0.1,0.48-0.25,0.95-0.42,1.42c0.17-0.46-0.07,0.13-0.14,0.28
				c-0.12,0.22-0.24,0.44-0.37,0.65c-0.12,0.18-0.24,0.36-0.37,0.53c0.28-0.38-0.17,0.18-0.29,0.31c-0.14,0.15-0.29,0.3-0.45,0.44
				c-0.06,0.06-0.59,0.5-0.39,0.34c0.19-0.14-0.31,0.21-0.43,0.29c-0.23,0.15-0.48,0.29-0.72,0.42c-0.19,0.1-0.38,0.19-0.56,0.28
				c-0.1,0.05-0.44,0.16,0.02-0.01c-0.1,0.04-0.2,0.08-0.3,0.11c-0.47,0.15-0.94,0.3-1.42,0.41c-0.24,0.05-0.49,0.1-0.73,0.14
				c0.45-0.08,0.02,0-0.18,0.01c-0.53,0.05-1.07,0.06-1.6,0.03c-0.25-0.01-0.5-0.03-0.75-0.05c-0.49-0.04,0.3,0.07-0.18-0.03
				c-0.52-0.11-1.04-0.21-1.55-0.37c-0.2-0.06-0.4-0.13-0.6-0.21c-0.57-0.21,0.1,0.08-0.28-0.12c-0.43-0.23-0.87-0.45-1.28-0.72
				c-0.12-0.08-0.23-0.16-0.35-0.24c0.03,0.02,0.31,0.25,0.09,0.07c-0.19-0.15-0.38-0.31-0.55-0.48c-0.15-0.14-0.3-0.29-0.44-0.45
				c-0.12-0.13-0.55-0.7-0.28-0.32c-0.27-0.38-0.5-0.78-0.73-1.19c-0.29-0.53,0.01,0.13-0.13-0.27c-0.09-0.26-0.19-0.52-0.26-0.79
				c-0.06-0.2-0.1-0.4-0.15-0.61c-0.03-0.14-0.05-0.27-0.08-0.41c0,0.03,0.05,0.44,0.02,0.15c-0.05-0.49-0.07-0.97-0.05-1.46
				c0.01-0.24,0.03-0.49,0.05-0.73c0.03-0.45-0.08,0.35,0.05-0.27c0.1-0.49,0.21-0.97,0.36-1.44c0.09-0.27,0.19-0.54,0.28-0.8
				c0.1-0.27-0.03,0.07-0.05,0.1c0.06-0.13,0.12-0.26,0.18-0.39c0.25-0.52,0.53-1.01,0.84-1.49c0.16-0.24,0.32-0.47,0.49-0.7
				c-0.3,0.4,0.2-0.22,0.28-0.32c0.35-0.4,0.74-0.76,1.13-1.11c0.08-0.07,0.16-0.14,0.24-0.2c-0.27,0.22-0.1,0.07,0.08-0.05
				c0.2-0.14,0.4-0.28,0.61-0.41c0.24-0.15,0.48-0.28,0.73-0.41c0.12-0.06,0.25-0.12,0.37-0.18c-0.2,0.1-0.27,0.1-0.02,0.01
				c0.53-0.19,1.06-0.32,1.6-0.45c0.05-0.01,0.4-0.06,0.08-0.02c-0.32,0.04,0.13-0.01,0.19-0.01c0.32-0.02,0.64-0.03,0.96-0.02
				c1.35,0.03,2.5-1.17,2.5-2.5C159.01,88.03,157.86,86.93,156.51,86.91L156.51,86.91z"/>
		</g>
	</g>
	<g>
		<g>
			<path class="st22" d="M116.93,102.84c3.22,0,3.22-5,0-5C113.71,97.84,113.71,102.84,116.93,102.84L116.93,102.84z"/>
		</g>
	</g>
	<g>
		<g>
			<path class="st22" d="M125.57,107.61c3.22,0,3.22-5,0-5C122.35,102.61,122.35,107.61,125.57,107.61L125.57,107.61z"/>
		</g>
	</g>
	<g>
		<g>
			<path class="st22" d="M124.43,100.57c3.22,0,3.22-5,0-5C121.21,95.57,121.21,100.57,124.43,100.57L124.43,100.57z"/>
		</g>
	</g>
	<g>
		<g>
			<path class="st22" d="M122.84,100.34c3.22,0,3.22-5,0-5C119.62,95.34,119.62,100.34,122.84,100.34L122.84,100.34z"/>
		</g>
	</g>
</g>
<g id="Layer_2">
</g>
</svg>
