<?xml version="1.0" encoding="utf-8"?>
<!-- Generator: Adobe Illustrator 25.3.0, SVG Export Plug-In . SVG Version: 6.00 Build 0)  -->
<svg version="1.1" xmlns="http://www.w3.org/2000/svg" xmlns:xlink="http://www.w3.org/1999/xlink" x="0px" y="0px"
	 viewBox="0 0 200 200" style="enable-background:new 0 0 200 200;" xml:space="preserve">
<style type="text/css">
	.st0{fill:url(#SVGID_1_);}
	.st1{fill:url(#SVGID_2_);stroke:#FFFFFF;stroke-width:10;stroke-miterlimit:10;}
	.st2{fill:none;stroke:#231F20;stroke-miterlimit:10;}
	.st3{fill:#FFFFFF;stroke:#ED1C24;stroke-width:10;stroke-miterlimit:10;}
	.st4{fill:#FFFFFF;stroke:#ED1C24;stroke-width:10;stroke-linecap:round;stroke-linejoin:round;stroke-miterlimit:10;}
	.st5{fill:none;stroke:#0B2F15;stroke-width:10;stroke-linecap:round;stroke-miterlimit:10;}
	.st6{fill:none;stroke:#222222;stroke-width:10;stroke-miterlimit:10;}
	.st7{fill:none;stroke:#000000;stroke-width:10;stroke-linecap:round;stroke-linejoin:round;stroke-miterlimit:10;}
	.st8{fill:#0B2F15;}
	.st9{fill:none;stroke:#231F20;stroke-width:10;stroke-linecap:round;stroke-linejoin:round;stroke-miterlimit:10;}
	.st10{fill:#BE1E2D;}
	.st11{fill:#FFDE17;}
	.st12{fill:#603913;}
	.st13{fill:none;}
	.st14{fill:none;stroke:#231F20;stroke-width:10;stroke-linecap:round;stroke-miterlimit:10;}
	.st15{fill:none;stroke:#000000;stroke-width:10;stroke-linejoin:round;stroke-miterlimit:10;}
	.st16{fill:#FBB040;}
	.st17{fill:none;stroke:#000000;stroke-width:10;stroke-miterlimit:10;}
	.st18{fill:none;stroke:#415C49;stroke-width:10;stroke-miterlimit:10;}
	.st19{fill:#8DC63F;}
	.st20{fill:#F9ED32;}
	.st21{fill:none;stroke:#FFFFFF;stroke-width:10;stroke-miterlimit:10;}
	.st22{fill:#00A651;}
	.st23{fill:#D1702F;}
	.st24{fill:#FC9F60;}
	.st25{fill:#FCCDAC;}
	.st26{fill:none;stroke:#000000;stroke-miterlimit:10;}
	.st27{fill:none;stroke:#000000;stroke-width:10;stroke-linecap:round;stroke-miterlimit:10;}
	.st28{fill:#B5D6F4;}
	.st29{fill:#FFFFFF;stroke:#231F20;stroke-width:10;stroke-miterlimit:10;}
	.st30{fill:#FFFFFF;stroke:#231F20;stroke-width:10;stroke-linejoin:round;stroke-miterlimit:10;}
	.st31{fill:none;stroke:#231F20;stroke-width:10;stroke-miterlimit:10;}
	.st32{fill:#FFFFFF;stroke:#222222;stroke-width:10;stroke-miterlimit:10;}
	.st33{fill:#F90303;stroke:#231F20;stroke-width:10;stroke-linecap:round;stroke-linejoin:round;stroke-miterlimit:10;}
	.st34{fill:#FF4F00;stroke:#231F20;stroke-width:10;stroke-linecap:round;stroke-linejoin:round;stroke-miterlimit:10;}
	.st35{fill:#3AC17E;stroke:#000000;stroke-width:10;stroke-miterlimit:10;}
	.st36{fill:#5B2727;stroke:#000000;stroke-width:10;stroke-miterlimit:10;}
	.st37{fill:#73CAFF;stroke:#231F20;stroke-width:10;stroke-miterlimit:10;}
	.st38{fill:#004501;stroke:#231F20;stroke-width:10;stroke-linejoin:round;stroke-miterlimit:10;}
	.st39{fill:#FFFC45;stroke:#231F20;stroke-width:10;stroke-miterlimit:10;}
	.st40{fill:#FFE573;stroke:#231F20;stroke-width:10;stroke-miterlimit:10;}
	.st41{fill:#D01700;stroke:#231F20;stroke-width:10;stroke-miterlimit:10;}
	.st42{fill:#8BC2FF;stroke:#231F20;stroke-width:10;stroke-miterlimit:10;}
	.st43{fill:#3D724B;stroke:#231F20;stroke-width:10;stroke-linejoin:round;stroke-miterlimit:10;}
</style>
<g id="Layer_1">
	<path class="st10" d="M36.16,72.66L36.16,72.66c0,5.1,4.17,9.27,9.27,9.27l107.91,0c5.1,0,9.27-4.17,9.27-9.27v0
		c0-5.1-4.17-9.27-9.27-9.27l-107.91,0C40.33,63.39,36.16,67.56,36.16,72.66z"/>
	<path class="st11" d="M35.92,104.54L35.92,104.54c0,2.55,2.09,4.63,4.63,4.63l117.18,0c2.55,0,4.63-2.09,4.63-4.63v0
		c0-2.55-2.09-4.63-4.63-4.63l-117.18,0C38,99.91,35.92,102,35.92,104.54z"/>
	<path class="st12" d="M35.92,117.81L35.92,117.81c0,5.1,4.17,9.27,9.27,9.27l107.91,0c5.1,0,9.27-4.17,9.27-9.27v0
		c0-5.1-4.17-9.27-9.27-9.27l-107.91,0C40.09,108.54,35.92,112.71,35.92,117.81z"/>
	<path class="st16" d="M164.81,57.98c0,7.86-29.3,4.75-65.45,4.75s-65.45,3.11-65.45-4.75s29.3-14.24,65.45-14.24
		S164.81,50.12,164.81,57.98z"/>
	<path class="st16" d="M36.1,141.3c0-8.26,28.32-4.89,63.26-4.89s63.26-3.37,63.26,4.89c0,8.26-28.32,14.96-63.26,14.96
		S36.1,149.56,36.1,141.3z"/>
	<path class="st19" d="M35.92,91.11L35.92,91.11c0,5.1,4.17,9.27,9.27,9.27l107.91,0c5.1,0,9.27-4.17,9.27-9.27v0
		c0-5.1-4.17-9.27-9.27-9.27l-107.91,0C40.09,81.84,35.92,86.01,35.92,91.11z"/>
	<path class="st11" d="M35.92,131.8L35.92,131.8c0,2.55,2.09,4.63,4.63,4.63l117.18,0c2.55,0,4.63-2.09,4.63-4.63v0
		c0-2.55-2.09-4.63-4.63-4.63l-117.18,0C38,127.16,35.92,129.25,35.92,131.8z"/>
	<circle class="st23" cx="76.69" cy="52.72" r="2.74"/>
	<circle class="st24" cx="126.19" cy="54.37" r="2.74"/>
	<circle class="st25" cx="85.52" cy="47.64" r="2.74"/>
	<circle class="st24" cx="102.81" cy="48.9" r="2.74"/>
	<circle class="st23" cx="114.64" cy="55.46" r="2.74"/>
	<circle class="st25" cx="95.67" cy="57.11" r="2.74"/>
	<circle class="st25" cx="123.31" cy="49.98" r="2.74"/>
</g>
<g id="Layer_2">
</g>
</svg>
