<?xml version="1.0" encoding="utf-8"?>
<!-- Generator: Adobe Illustrator 25.3.0, SVG Export Plug-In . SVG Version: 6.00 Build 0)  -->
<svg version="1.1" xmlns="http://www.w3.org/2000/svg" xmlns:xlink="http://www.w3.org/1999/xlink" x="0px" y="0px"
	 viewBox="0 0 200 200" style="enable-background:new 0 0 200 200;" xml:space="preserve">
<style type="text/css">
	.st0{fill:url(#SVGID_1_);}
	.st1{fill:url(#SVGID_2_);stroke:#FFFFFF;stroke-width:10;stroke-miterlimit:10;}
	.st2{fill:none;stroke:#231F20;stroke-miterlimit:10;}
	.st3{fill:#FFFFFF;stroke:#ED1C24;stroke-width:10;stroke-miterlimit:10;}
	.st4{fill:#FFFFFF;stroke:#ED1C24;stroke-width:10;stroke-linecap:round;stroke-linejoin:round;stroke-miterlimit:10;}
	.st5{fill:none;stroke:#0B2F15;stroke-width:10;stroke-linecap:round;stroke-miterlimit:10;}
	.st6{fill:none;stroke:#222222;stroke-width:10;stroke-miterlimit:10;}
	.st7{fill:none;stroke:#000000;stroke-width:10;stroke-linecap:round;stroke-linejoin:round;stroke-miterlimit:10;}
	.st8{fill:#0B2F15;}
	.st9{fill:none;stroke:#231F20;stroke-width:10;stroke-linecap:round;stroke-linejoin:round;stroke-miterlimit:10;}
	.st10{fill:#BE1E2D;}
	.st11{fill:#FFDE17;}
	.st12{fill:#603913;}
	.st13{fill:none;}
	.st14{fill:none;stroke:#231F20;stroke-width:10;stroke-linecap:round;stroke-miterlimit:10;}
	.st15{fill:none;stroke:#000000;stroke-width:10;stroke-linejoin:round;stroke-miterlimit:10;}
	.st16{fill:#FBB040;}
	.st17{fill:none;stroke:#000000;stroke-width:10;stroke-miterlimit:10;}
	.st18{fill:none;stroke:#415C49;stroke-width:10;stroke-miterlimit:10;}
	.st19{fill:#8DC63F;}
	.st20{fill:#F9ED32;}
	.st21{fill:none;stroke:#FFFFFF;stroke-width:10;stroke-miterlimit:10;}
	.st22{fill:#00A651;}
	.st23{fill:#D1702F;}
	.st24{fill:#FC9F60;}
	.st25{fill:#FCCDAC;}
	.st26{fill:none;stroke:#000000;stroke-miterlimit:10;}
	.st27{fill:none;stroke:#000000;stroke-width:10;stroke-linecap:round;stroke-miterlimit:10;}
	.st28{fill:#B5D6F4;}
	.st29{fill:#FFFFFF;stroke:#231F20;stroke-width:10;stroke-miterlimit:10;}
	.st30{fill:#FFFFFF;stroke:#231F20;stroke-width:10;stroke-linejoin:round;stroke-miterlimit:10;}
	.st31{fill:none;stroke:#231F20;stroke-width:10;stroke-miterlimit:10;}
	.st32{fill:#FFFFFF;stroke:#222222;stroke-width:10;stroke-miterlimit:10;}
	.st33{fill:#F90303;stroke:#231F20;stroke-width:10;stroke-linecap:round;stroke-linejoin:round;stroke-miterlimit:10;}
	.st34{fill:#FF4F00;stroke:#231F20;stroke-width:10;stroke-linecap:round;stroke-linejoin:round;stroke-miterlimit:10;}
	.st35{fill:#3AC17E;stroke:#000000;stroke-width:10;stroke-miterlimit:10;}
	.st36{fill:#5B2727;stroke:#000000;stroke-width:10;stroke-miterlimit:10;}
	.st37{fill:#73CAFF;stroke:#231F20;stroke-width:10;stroke-miterlimit:10;}
	.st38{fill:#004501;stroke:#231F20;stroke-width:10;stroke-linejoin:round;stroke-miterlimit:10;}
	.st39{fill:#FFFC45;stroke:#231F20;stroke-width:10;stroke-miterlimit:10;}
	.st40{fill:#FFE573;stroke:#231F20;stroke-width:10;stroke-miterlimit:10;}
	.st41{fill:#D01700;stroke:#231F20;stroke-width:10;stroke-miterlimit:10;}
	.st42{fill:#8BC2FF;stroke:#231F20;stroke-width:10;stroke-miterlimit:10;}
	.st43{fill:#3D724B;stroke:#231F20;stroke-width:10;stroke-linejoin:round;stroke-miterlimit:10;}
</style>
<g id="Layer_1">
	<g>
		<g>
			<path class="st22" d="M52.8,110.02c2.46-0.29,4.92-0.58,7.38-0.87c0.98-0.12,1.98-0.19,2.95-0.35c0.06-0.01,0.16,0,0.2-0.01
				c0.35-0.12,0.02,0.04-0.12-0.09c-0.25-0.24-0.28-0.35-0.43-0.65c-0.31-0.64,0.05-0.18-0.08-0.05c0,0,0.08-0.39-0.02-0.04
				c-0.04,0.13-0.07,0.25-0.12,0.37c0.09-0.24-0.01,0.02-0.05,0.12c-0.71,1.57-1.51,3.12-2.27,4.67c-1.69,3.47-3.38,6.94-5.06,10.42
				c-0.55,1.12-0.4,2.82,0.9,3.42c4.9,2.27,10.22,2.91,15.51,1.79c1.32-0.28,2.09-1.83,1.75-3.08c-0.38-1.37-1.75-2.03-3.08-1.75
				c-3.88,0.82-8.05,0.38-11.66-1.29c0.3,1.14,0.6,2.28,0.9,3.42c1.66-3.41,3.32-6.83,4.98-10.24c0.82-1.69,1.69-3.37,2.47-5.08
				c0.7-1.56,1.16-3.33,0.24-4.92c-1.18-2.05-3.36-2.1-5.39-1.86c-1.73,0.2-3.45,0.41-5.18,0.61c-1.27,0.15-2.55,0.3-3.82,0.45
				c-1.34,0.16-2.5,1.04-2.5,2.5C50.3,108.75,51.45,110.18,52.8,110.02L52.8,110.02z"/>
		</g>
	</g>
	<g>
		<g>
			<path class="st22" d="M81.66,119.24c4.49,1.61,11.01,2.1,14.13-2.29c3.3-4.65-1.46-10.48-6.12-11.55
				c-5.23-1.21-11.23,2.26-12.08,7.74c-0.8,5.13,1.99,11.24,6.74,13.59c2.53,1.26,5.37,1.44,8.13,1.04
				c2.41-0.35,5.08-1.34,6.66-3.28c0.85-1.05,1.02-2.51,0-3.54c-0.88-0.88-2.68-1.05-3.54,0c-0.23,0.28-0.48,0.52-0.75,0.76
				c0.47-0.41,0.01-0.02-0.1,0.05c-0.17,0.11-0.34,0.21-0.51,0.3c-0.12,0.06-0.24,0.12-0.36,0.18c-0.59,0.31,0.47-0.14-0.17,0.07
				c-0.48,0.16-0.96,0.32-1.46,0.43c-0.16,0.04-1.19,0.2-0.66,0.14c-0.45,0.06-0.9,0.09-1.36,0.09c-0.45,0.01-0.9-0.03-1.35-0.05
				c-0.1-0.01-0.49-0.06,0,0.01c-0.29-0.04-0.57-0.1-0.85-0.16c-0.41-0.1-0.81-0.22-1.2-0.37c0.54,0.21-0.35-0.2-0.48-0.28
				c-0.7-0.43-1.36-1.04-2.04-1.88c-0.29-0.36,0.28,0.46-0.14-0.2c-0.13-0.21-0.28-0.42-0.41-0.63c-0.25-0.42-0.49-0.87-0.68-1.32
				c0.16,0.38-0.03-0.11-0.06-0.2c-0.07-0.19-0.13-0.38-0.19-0.58c-0.07-0.23-0.13-0.47-0.18-0.7c-0.02-0.09-0.18-1.04-0.11-0.51
				c-0.05-0.39-0.07-0.78-0.08-1.17c0-0.23,0.02-0.46,0.01-0.69c0-0.66-0.15,0.43,0.02-0.21c0.06-0.21,0.1-0.43,0.17-0.64
				c0.02-0.08,0.32-0.71,0.08-0.23c0.2-0.4,0.42-0.8,0.69-1.15c-0.32,0.42,0.16-0.16,0.2-0.19c0.16-0.17,0.33-0.32,0.5-0.48
				c0.49-0.48-0.36,0.19,0.23-0.18c0.13-0.08,0.26-0.17,0.4-0.26c0.2-0.12,0.41-0.23,0.63-0.34c0.62-0.32-0.39,0.07,0.29-0.11
				c0.24-0.06,0.46-0.15,0.7-0.2c0.16-0.04,0.32-0.07,0.48-0.1c-0.21,0.03-0.23,0.03-0.04,0.01c0.46-0.04,0.93-0.04,1.39,0.01
				c-0.55-0.06,0.2,0.06,0.26,0.07c0.23,0.06,0.45,0.13,0.67,0.2c0.69,0.22-0.23-0.13,0.15,0.07c0.17,0.09,0.34,0.18,0.51,0.27
				c0.2,0.12,0.39,0.24,0.58,0.38c-0.4-0.29,0.29,0.26,0.36,0.33c0.16,0.16,0.3,0.32,0.46,0.48c0.32,0.35,0.07,0.09,0.01,0.01
				c0.12,0.18,0.24,0.35,0.34,0.54c0.05,0.09,0.3,0.71,0.1,0.15c0.07,0.19,0.11,0.38,0.18,0.57c0.21,0.55,0.03-0.48,0.03,0.1
				c0,0.14-0.03,0.34,0,0.47c-0.01,0.19,0,0.13,0.03-0.2c-0.03,0.12-0.06,0.25-0.1,0.37c-0.15,0.61,0.21-0.47-0.07,0.11
				c-0.16,0.23-0.14,0.23,0.04-0.01c-0.08,0.1-0.17,0.2-0.27,0.3c-0.08,0.08-0.58,0.46-0.1,0.13c-0.17,0.12-0.34,0.22-0.51,0.32
				c-0.09,0.05-0.7,0.3-0.15,0.1c-0.27,0.1-0.54,0.19-0.82,0.26c-0.22,0.06-0.43,0.09-0.65,0.14c-0.68,0.14,0.46,0-0.24,0.03
				c-2.28,0.08-3.69-0.09-6-0.92c-1.27-0.45-2.74,0.51-3.08,1.75C79.53,117.55,80.38,118.78,81.66,119.24L81.66,119.24z"/>
		</g>
	</g>
	<g>
		<g>
			<path class="st22" d="M103.94,107.74c0.93,6.75,1.85,13.5,2.78,20.24c0.15,1.07,1.42,1.84,2.41,1.84c1.13,0,2.08-0.78,2.41-1.84
				c0.8-2.52,3.39-4.26,5.96-4.21c1.64,0.03,3.38,0.73,5.12,0.26c2.15-0.58,3.35-2.36,3.53-4.51c0.31-3.68-2.03-7.45-5.36-8.96
				c-3.55-1.61-7.76-0.78-10.52,1.94c-0.88,0.87-0.96,2.33-0.2,3.28c0.82,1.04,2.06,1.18,3.23,0.64c3.38-1.54,3.95-5.89,2.58-8.97
				c-0.73-1.64-1.94-3.04-3.17-4.33c-1.22-1.28-2.83-2.37-4.67-2.31c-2.08,0.07-3.71,1.96-3.63,4.02c0.08,1.99,1.42,3.53,2.3,5.22
				c1.64,3.14,2.26,6.65,2.05,10.16c-0.09,1.48,1.69,3.02,3.16,2.41c3.54-1.48,7.07-2.95,10.61-4.43c1.24-0.52,2.14-1.66,1.75-3.08
				c-0.36-1.31-1.77-2.11-3.08-1.75c-1.94,0.53-4.34,0.67-5.98-0.71c-1.37-1.15-1.52-2.86-0.61-4.12c0.65-0.88,0.33-2.3-0.39-3.03
				c-0.81-0.81-2.04-0.91-3.03-0.39c-4,2.09-3.18,7.32-0.66,10.23c3.21,3.7,8.45,2.58,12.65,4c3.06,1.03,4.37-3.79,1.33-4.82
				c-1.73-0.58-3.55-0.76-5.36-0.96c-1.43-0.15-3.12-0.26-4.36-1.05c-0.61-0.39-1.1-1.2-1.36-2.02c-0.04-0.13-0.06-0.26-0.09-0.39
				c0.03,0.24,0.03,0.21,0.01-0.1c-0.02-0.52-0.11,0.23,0.02-0.29c0.13-0.51-0.15,0.15,0.12-0.25c-0.12,0.18,0.03,0.06,0.21-0.04
				c-1.14-1.14-2.28-2.28-3.42-3.42c-2.21,3.01-1.33,7.4,1.16,9.96c2.84,2.91,7.34,3.25,11.07,2.22c-0.44-1.61-0.89-3.21-1.33-4.82
				c-3.54,1.48-7.07,2.95-10.61,4.43c1.05,0.8,2.11,1.61,3.16,2.41c0.16-2.65-0.12-5.36-0.84-7.93c-0.37-1.32-0.87-2.6-1.45-3.84
				c-0.53-1.15-1.26-2.15-1.84-3.27c-0.05-0.1-0.11-0.28-0.19-0.37c-0.07-0.45-0.12-0.43-0.15,0.04c0.04,0.36-0.14,0.58-0.52,0.66
				c-0.71,0.45-0.59,0.18-0.22,0.55c0.77,0.76,1.56,1.54,2.18,2.43c0.55,0.8,0.96,1.6,0.87,2.44c-0.01,0.13-0.13,0.54-0.24,0.74
				c-0.07,0.12-0.22,0.25-0.6,0.42c1.01,1.31,2.02,2.62,3.03,3.93c1.49-1.46,3.97-1.84,5.67-0.49c0.89,0.71,1.53,1.79,1.68,2.92
				c0.03,0.22,0.01,0.46,0.02,0.68c0.01,0.48-0.25,0.29,0.02,0.19c1.01-0.37-0.02-0.17,0.17-0.14c-0.29-0.05-0.65,0-0.95-0.04
				c-1.27-0.15-2.55-0.47-3.88-0.34c-1.54,0.14-2.98,0.57-4.35,1.28c-2.62,1.36-4.57,3.76-5.46,6.55c1.61,0,3.21,0,4.82,0
				c-0.93-6.75-1.85-13.5-2.78-20.24c-0.18-1.34-1.9-2.07-3.08-1.75C104.25,105.06,103.76,106.4,103.94,107.74L103.94,107.74z"/>
		</g>
	</g>
	<g>
		<g>
			<path class="st22" d="M120.32,121.07c1,0.13,2,0.25,3,0.38c1.03,0.13,2.19-0.87,2.41-1.84c0.27-1.18-0.22-2.12-1.15-2.82
				c-5.08-3.88-12.8-2.03-16.22,3.12c1.55,0.42,3.11,0.84,4.66,1.26c-0.27-4.99-0.53-9.98-0.8-14.97c-0.07-1.3-1.1-2.56-2.5-2.5
				c-1.3,0.06-2.57,1.1-2.5,2.5c0.27,4.99,0.53,9.98,0.8,14.97c0.13,2.51,3.27,3.35,4.66,1.26c0.07-0.11,0.15-0.21,0.22-0.32
				c-0.27,0.44-0.07,0.09,0.03-0.03c0.17-0.19,0.34-0.38,0.53-0.56c0.13-0.12,0.75-0.63,0.29-0.29c0.23-0.17,0.47-0.33,0.71-0.48
				c0.24-0.15,0.5-0.29,0.75-0.41c0.11-0.06,0.23-0.11,0.35-0.16c-0.17,0.08-0.34,0.13-0.07,0.04c0.55-0.18,1.09-0.33,1.66-0.44
				c0.31-0.06,0.08,0-0.1,0.01c0.13-0.01,0.25-0.03,0.38-0.04c0.28-0.02,0.57-0.03,0.86-0.02c0.29,0.01,0.57,0.04,0.85,0.05
				c-0.57-0.03,0.04,0.01,0.27,0.07c0.28,0.06,0.55,0.14,0.82,0.23c0.12,0.04,0.24,0.09,0.36,0.13c0.28,0.08-0.4-0.21,0.01,0.01
				c0.51,0.27,1,0.55,1.46,0.9c0.42-1.55,0.84-3.11,1.26-4.66c-1-0.13-2-0.25-3-0.38c-1.3-0.16-2.56,1.27-2.5,2.5
				C117.89,120.07,118.92,120.9,120.32,121.07L120.32,121.07z"/>
		</g>
	</g>
	<g>
		<g>
			<path class="st22" d="M138.94,107.08c-7.86-0.16-12.97,10.74-7.06,16.33c2.63,2.49,6.8,3.31,10.2,2.05
				c1.89-0.7,3.47-1.84,4.6-3.53c1.01-1.51,1.47-3.49,1.32-5.29c-0.34-4.13-3.17-8.37-7.5-9.08c-1.29-0.21-2.75,0.33-3.08,1.75
				c-0.27,1.21,0.37,2.85,1.75,3.08c0.3,0.05,0.6,0.12,0.89,0.21c0.09,0.03,0.17,0.07,0.26,0.09c0.24,0.06-0.28-0.12-0.28-0.12
				c0.14,0.1,0.34,0.16,0.49,0.25c0.12,0.07,0.24,0.14,0.35,0.21c0.07,0.05,0.54,0.39,0.19,0.12c-0.33-0.26,0.08,0.08,0.17,0.16
				c0.14,0.12,0.27,0.25,0.39,0.39c0.1,0.1,0.18,0.21,0.28,0.31c0.28,0.31-0.33-0.49-0.01-0.01c0.18,0.27,0.36,0.55,0.51,0.84
				c0.08,0.14,0.15,0.29,0.22,0.44c0.19,0.39-0.17-0.49-0.04-0.08c0.11,0.33,0.23,0.66,0.3,1.01c0.04,0.16,0.06,0.32,0.1,0.48
				c0.09,0.44-0.04-0.56-0.02-0.11c0.02,0.32,0.04,0.65,0.02,0.97c0,0.1-0.07,0.68,0,0.22c0.07-0.45-0.02,0.09-0.05,0.21
				c-0.06,0.3-0.25,0.63-0.28,0.92c0-0.04,0.27-0.57,0.09-0.22c-0.03,0.06-0.06,0.13-0.09,0.19c-0.08,0.15-0.16,0.29-0.24,0.43
				c-0.07,0.11-0.19,0.23-0.24,0.35c0,0,0.35-0.4,0.18-0.23c-0.08,0.08-0.15,0.17-0.23,0.26c-0.09,0.1-0.19,0.2-0.29,0.29
				c-0.07,0.06-0.52,0.43-0.16,0.16c0.34-0.26-0.09,0.06-0.19,0.12c-0.15,0.1-0.31,0.19-0.47,0.28c-0.12,0.06-0.25,0.12-0.37,0.18
				c-0.38,0.19,0.54-0.19,0.03-0.02c-0.31,0.1-0.61,0.2-0.93,0.27c-0.15,0.03-0.33,0.04-0.48,0.09c-0.02,0.01,0.58-0.05,0.32-0.04
				c-0.07,0-0.14,0.01-0.21,0.02c-0.35,0.03-0.7,0.04-1.04,0.02c-0.16-0.01-0.32-0.02-0.49-0.03c-0.45-0.03,0.55,0.11,0.11,0.01
				c-0.34-0.07-0.68-0.14-1.01-0.24c-0.13-0.04-0.26-0.09-0.39-0.13c-0.55-0.19,0.4,0.21,0.03,0.01c-0.28-0.15-0.57-0.29-0.83-0.47
				c-0.06-0.04-0.16-0.14-0.22-0.16c-0.01,0,0.42,0.35,0.23,0.18c-0.12-0.11-0.24-0.2-0.36-0.31c-0.1-0.09-0.2-0.19-0.29-0.29
				c-0.06-0.07-0.12-0.14-0.18-0.21c-0.23-0.25,0.11,0.1,0.13,0.18c-0.07-0.24-0.34-0.54-0.47-0.77c-0.28-0.5,0.13,0.42,0,0.03
				c-0.06-0.17-0.12-0.34-0.17-0.52c-0.04-0.13-0.07-0.26-0.1-0.39c-0.02-0.08-0.02-0.2-0.05-0.27c-0.01-0.02,0.05,0.59,0.04,0.33
				c-0.01-0.32-0.04-0.63-0.03-0.95c0.01-0.16,0.02-0.32,0.03-0.48c0.03-0.43-0.13,0.64,0,0.05c0.07-0.32,0.14-0.63,0.23-0.94
				c0.06-0.18,0.13-0.35,0.18-0.52c0.08-0.25-0.13,0.29-0.12,0.28c0.05-0.07,0.08-0.17,0.12-0.25c0.16-0.34,0.34-0.66,0.55-0.97
				c0.1-0.15,0.24-0.3,0.32-0.46c0-0.01-0.36,0.41-0.18,0.23c0.08-0.08,0.15-0.18,0.22-0.26c0.23-0.26,0.48-0.49,0.74-0.73
				c0.4-0.37-0.43,0.28,0.03-0.03c0.13-0.09,0.26-0.18,0.4-0.26c0.15-0.09,0.31-0.18,0.47-0.27c0.07-0.03,0.19-0.07,0.24-0.12
				c-0.05,0.05-0.55,0.21-0.22,0.1c0.35-0.12,0.69-0.21,1.04-0.29c0.39-0.09-0.6,0.04-0.05,0.01c0.21-0.01,0.42-0.02,0.63-0.01
				c1.31,0.03,2.56-1.17,2.5-2.5C141.38,108.2,140.34,107.11,138.94,107.08L138.94,107.08z"/>
		</g>
	</g>
	<g>
		<g>
			<path class="st22" d="M113.17,119.2c3.22,0,3.22-5,0-5C109.95,114.2,109.94,119.2,113.17,119.2L113.17,119.2z"/>
		</g>
	</g>
	<g>
		<g>
			<path class="st22" d="M118.79,122.31c3.22,0,3.22-5,0-5C115.57,117.31,115.57,122.31,118.79,122.31L118.79,122.31z"/>
		</g>
	</g>
	<g>
		<g>
			<path class="st22" d="M118.05,117.72c3.22,0,3.22-5,0-5C114.83,112.72,114.83,117.72,118.05,117.72L118.05,117.72z"/>
		</g>
	</g>
	<g>
		<g>
			<path class="st22" d="M117.02,117.57c3.22,0,3.22-5,0-5C113.8,112.57,113.79,117.57,117.02,117.57L117.02,117.57z"/>
		</g>
	</g>
</g>
<g id="Layer_2">
	<rect x="37.2" y="77.09" class="st9" width="124.9" height="81.56"/>
	<polygon class="st33" points="100.93,31.77 39.75,73.87 162.1,73.87 	"/>
	<rect x="81.7" y="134.9" class="st34" width="35.9" height="24.53"/>
</g>
</svg>
