<?xml version="1.0" encoding="utf-8"?>
<!-- Generator: Adobe Illustrator 25.3.0, SVG Export Plug-In . SVG Version: 6.00 Build 0)  -->
<svg version="1.1" xmlns="http://www.w3.org/2000/svg" xmlns:xlink="http://www.w3.org/1999/xlink" x="0px" y="0px"
	 viewBox="0 0 200 200" style="enable-background:new 0 0 200 200;" xml:space="preserve">
<style type="text/css">
	.st0{fill:url(#SVGID_1_);}
	.st1{fill:url(#SVGID_2_);stroke:#FFFFFF;stroke-width:10;stroke-miterlimit:10;}
	.st2{fill:none;stroke:#231F20;stroke-miterlimit:10;}
	.st3{fill:#FFFFFF;stroke:#ED1C24;stroke-width:10;stroke-miterlimit:10;}
	.st4{fill:#FFFFFF;stroke:#ED1C24;stroke-width:10;stroke-linecap:round;stroke-linejoin:round;stroke-miterlimit:10;}
	.st5{fill:none;stroke:#0B2F15;stroke-width:10;stroke-linecap:round;stroke-miterlimit:10;}
	.st6{fill:none;stroke:#222222;stroke-width:10;stroke-miterlimit:10;}
	.st7{fill:none;stroke:#000000;stroke-width:10;stroke-linecap:round;stroke-linejoin:round;stroke-miterlimit:10;}
	.st8{fill:#0B2F15;}
	.st9{fill:none;stroke:#231F20;stroke-width:10;stroke-linecap:round;stroke-linejoin:round;stroke-miterlimit:10;}
	.st10{fill:#BE1E2D;}
	.st11{fill:#FFDE17;}
	.st12{fill:#603913;}
	.st13{fill:none;}
	.st14{fill:none;stroke:#231F20;stroke-width:10;stroke-linecap:round;stroke-miterlimit:10;}
	.st15{fill:none;stroke:#000000;stroke-width:10;stroke-linejoin:round;stroke-miterlimit:10;}
	.st16{fill:#FBB040;}
	.st17{fill:none;stroke:#000000;stroke-width:10;stroke-miterlimit:10;}
	.st18{fill:none;stroke:#415C49;stroke-width:10;stroke-miterlimit:10;}
	.st19{fill:#8DC63F;}
	.st20{fill:#F9ED32;}
	.st21{fill:none;stroke:#FFFFFF;stroke-width:10;stroke-miterlimit:10;}
	.st22{fill:#00A651;}
	.st23{fill:#D1702F;}
	.st24{fill:#FC9F60;}
	.st25{fill:#FCCDAC;}
	.st26{fill:none;stroke:#000000;stroke-miterlimit:10;}
	.st27{fill:none;stroke:#000000;stroke-width:10;stroke-linecap:round;stroke-miterlimit:10;}
	.st28{fill:#B5D6F4;}
	.st29{fill:#FFFFFF;stroke:#231F20;stroke-width:10;stroke-miterlimit:10;}
	.st30{fill:#FFFFFF;stroke:#231F20;stroke-width:10;stroke-linejoin:round;stroke-miterlimit:10;}
	.st31{fill:none;stroke:#231F20;stroke-width:10;stroke-miterlimit:10;}
	.st32{fill:#FFFFFF;stroke:#222222;stroke-width:10;stroke-miterlimit:10;}
	.st33{fill:#F90303;stroke:#231F20;stroke-width:10;stroke-linecap:round;stroke-linejoin:round;stroke-miterlimit:10;}
	.st34{fill:#FF4F00;stroke:#231F20;stroke-width:10;stroke-linecap:round;stroke-linejoin:round;stroke-miterlimit:10;}
	.st35{fill:#3AC17E;stroke:#000000;stroke-width:10;stroke-miterlimit:10;}
	.st36{fill:#5B2727;stroke:#000000;stroke-width:10;stroke-miterlimit:10;}
	.st37{fill:#73CAFF;stroke:#231F20;stroke-width:10;stroke-miterlimit:10;}
	.st38{fill:#004501;stroke:#231F20;stroke-width:10;stroke-linejoin:round;stroke-miterlimit:10;}
	.st39{fill:#FFFC45;stroke:#231F20;stroke-width:10;stroke-miterlimit:10;}
	.st40{fill:#FFE573;stroke:#231F20;stroke-width:10;stroke-miterlimit:10;}
	.st41{fill:#D01700;stroke:#231F20;stroke-width:10;stroke-miterlimit:10;}
	.st42{fill:#8BC2FF;stroke:#231F20;stroke-width:10;stroke-miterlimit:10;}
	.st43{fill:#3D724B;stroke:#231F20;stroke-width:10;stroke-linejoin:round;stroke-miterlimit:10;}
</style>
<g id="Layer_1">
</g>
<g id="Layer_2">
	<path class="st42" d="M148.42,87.44c0,31.04-25.16,56.2-56.2,56.2s-56.2-25.16-56.2-56.2c0-1.65,0.04-3.29,0.04-3.29
		s0.05-1.1,0.14-2.17c0.27-3.15,1.72-9.23,2.04-10.24c6.38-20.17,27.21-40.59,53.98-40.51C121.29,31.32,148.42,55.56,148.42,87.44z"
		/>
	<path class="st31" d="M36.01,77.95c8.61-12.06,13.54-14.06,16.53-13.22c4.39,1.22,0.91-10.15,9.47,6.61
		c6.09,11.92,4.46,25.46,8.52,23.26c3.26-1.77,11.5-10.77,14.63-11.35c3.52-0.65,4.73,21.2,11.02,21.16
		c5.25-0.03,3.26-14.66,15.88-29.76c4.95-5.92,9.98-9.85,13.22-12.12"/>
	<polygon class="st43" points="116.01,112.11 99.48,118.08 107.75,129.75 125.28,120.93 	"/>
	<path class="st9" d="M118.28,19.34c4.36,1.89,31.14,16.1,40.63,43.18c11.2,31.94,1.99,66.91-28.96,86.37
		C101.8,166.58,64.71,160,38.48,138.28"/>
	<polyline class="st9" points="99.48,159.41 99.48,180.44 63.11,180.44 139.38,180.44 	"/>
</g>
</svg>
